<svg id="visual" viewBox="0 0 960 540" width="960" height="540" xmlns="http://www.w3.org/2000/svg" xmlns:xlink="http://www.w3.org/1999/xlink" version="1.1"><rect x="0" y="0" width="960" height="540" fill="#001220"></rect><path d="M204 0L206 12.8C208 25.7 212 51.3 204.3 77C196.7 102.7 177.3 128.3 165.7 154C154 179.7 150 205.3 161.3 231.2C172.7 257 199.3 283 206.3 308.8C213.3 334.7 200.7 360.3 199.5 386C198.3 411.7 208.7 437.3 215.8 463C223 488.7 227 514.3 229 527.2L231 540L0 540L0 527.2C0 514.3 0 488.7 0 463C0 437.3 0 411.7 0 386C0 360.3 0 334.7 0 308.8C0 283 0 257 0 231.2C0 205.3 0 179.7 0 154C0 128.3 0 102.7 0 77C0 51.3 0 25.7 0 12.8L0 0Z" fill="#fa7268"></path><path d="M193 0L180 12.8C167 25.7 141 51.3 128.8 77C116.7 102.7 118.3 128.3 131.2 154C144 179.7 168 205.3 167.2 231.2C166.3 257 140.7 283 139.3 308.8C138 334.7 161 360.3 169.8 386C178.7 411.7 173.3 437.3 173.7 463C174 488.7 180 514.3 183 527.2L186 540L0 540L0 527.2C0 514.3 0 488.7 0 463C0 437.3 0 411.7 0 386C0 360.3 0 334.7 0 308.8C0 283 0 257 0 231.2C0 205.3 0 179.7 0 154C0 128.3 0 102.7 0 77C0 51.3 0 25.7 0 12.8L0 0Z" fill="#ef5f67"></path><path d="M101 0L108.8 12.8C116.7 25.7 132.3 51.3 133.7 77C135 102.7 122 128.3 119.8 154C117.7 179.7 126.3 205.3 127.3 231.2C128.3 257 121.7 283 113.8 308.8C106 334.7 97 360.3 97 386C97 411.7 106 437.3 109.8 463C113.7 488.7 112.3 514.3 111.7 527.2L111 540L0 540L0 527.2C0 514.3 0 488.7 0 463C0 437.3 0 411.7 0 386C0 360.3 0 334.7 0 308.8C0 283 0 257 0 231.2C0 205.3 0 179.7 0 154C0 128.3 0 102.7 0 77C0 51.3 0 25.7 0 12.8L0 0Z" fill="#e34c67"></path><path d="M78 0L77.2 12.8C76.3 25.7 74.7 51.3 71 77C67.3 102.7 61.7 128.3 67.8 154C74 179.7 92 205.3 97.8 231.2C103.7 257 97.3 283 91.8 308.8C86.3 334.7 81.7 360.3 83 386C84.3 411.7 91.7 437.3 96.5 463C101.3 488.7 103.7 514.3 104.8 527.2L106 540L0 540L0 527.2C0 514.3 0 488.7 0 463C0 437.3 0 411.7 0 386C0 360.3 0 334.7 0 308.8C0 283 0 257 0 231.2C0 205.3 0 179.7 0 154C0 128.3 0 102.7 0 77C0 51.3 0 25.7 0 12.8L0 0Z" fill="#d53867"></path><path d="M31 0L33.8 12.8C36.7 25.7 42.3 51.3 49.2 77C56 102.7 64 128.3 65.5 154C67 179.7 62 205.3 54.7 231.2C47.3 257 37.7 283 34.7 308.8C31.7 334.7 35.3 360.3 42.7 386C50 411.7 61 437.3 64.8 463C68.7 488.7 65.3 514.3 63.7 527.2L62 540L0 540L0 527.2C0 514.3 0 488.7 0 463C0 437.3 0 411.7 0 386C0 360.3 0 334.7 0 308.8C0 283 0 257 0 231.2C0 205.3 0 179.7 0 154C0 128.3 0 102.7 0 77C0 51.3 0 25.7 0 12.8L0 0Z" fill="#c62368"></path></svg>